<svg xmlns="http://www.w3.org/2000/svg" width="164" height="314" viewBox="0 0 164 314"><title>CAZE MIDI CTRL</title>
<defs><linearGradient id="bg" x2="1" y2="1"><stop stop-color="#253b43"/><stop offset="1" stop-color="#0b1218"/></linearGradient><linearGradient id="metal" x2="0" y2="1"><stop stop-color="#48606a"/><stop offset="1" stop-color="#1b282f"/></linearGradient></defs>
<rect width="164" height="314" fill="url(#bg)"/>
<path d="M0 110 L164 30 M0 130 L164 50 M0 290 L164 210" stroke="#34515a" fill="none" opacity=".4"/>
<rect x="20" y="24" width="32" height="32" rx="9" fill="#17282e" stroke="#77d9df"/>
<path d="M42 33 H33 Q29 33 29 37 V44 Q29 48 33 48 H42" fill="none" stroke="#9cf5fa" stroke-width="3"/>
<text x="20" y="84" fill="#eef8fc" font-family="Arial" font-weight="bold" font-size="23" letter-spacing="1">CAZE</text>
<text x="20" y="103" fill="#83d6de" font-family="Arial" font-size="12" letter-spacing="2">MIDI CTRL</text>
<g transform="translate(16 144) rotate(-8 66 50)">
<rect x="0" y="5" width="132" height="106" rx="12" fill="#070d12"/>
<rect width="132" height="104" rx="12" fill="url(#metal)" stroke="#617780"/>
<rect x="33" y="38" width="66" height="28" rx="4" fill="#0a2329" stroke="#58848a"/>
<path d="M41 48 H66 M41 56 H58 M79 48 H91 M79 56 H91" stroke="#8fdee0" stroke-width="2"/>
<g fill="#b9cbd2" stroke="#778b97" stroke-width="3"><circle cx="24" cy="21" r="7"/><circle cx="66" cy="21" r="7"/><circle cx="108" cy="21" r="7"/><circle cx="24" cy="83" r="7"/><circle cx="66" cy="83" r="7"/><circle cx="108" cy="83" r="7"/></g>
</g>
<path d="M20 282 H144" stroke="#65c3ce"/>
<text x="20" y="298" fill="#8babb8" font-family="Arial" font-size="8" letter-spacing="1.6">SEU SOM. SEU CONTROLE.</text>
</svg>
